<svg width="290" height="17" viewBox="0 0 290 17" fill="none" xmlns="http://www.w3.org/2000/svg">
<path d="M23.3388 1.02698H24.6408L22.4358 3.21098L17.8158 14.467L17.0598 16.336L16.2828 14.467L12.3558 4.91198L8.4288 14.467L7.6518 16.336L6.8748 14.467L2.2548 3.21098L0.0708008 1.02698H1.3518H2.8428H2.9478H4.2288L3.3258 1.95098L7.6518 12.556L12.3558 0.669983L17.0598 12.556L21.3858 1.95098L20.4618 1.02698H21.7638H21.8688H23.3388Z" fill="#F9F8DF"/>
<path d="M30.1863 14.593H37.2843L38.5653 13.312L38.3553 15.979H31.4673H30.1863H28.5903H27.3093L28.5903 14.698V2.30798L27.3093 1.02698H28.5903H30.1863H31.4673H36.3183L36.5283 3.60998L35.3313 2.41298H30.1863V7.57898H32.3493L32.9583 6.96998V7.57898V7.83098V8.25098V8.50298V9.11198L32.3493 8.50298H30.1863V14.593Z" fill="#F9F8DF"/>
<path d="M44.1488 15.118L45.0098 15.979H44.1488H43.7288H42.5738H41.2718L42.5738 14.698V2.30798L41.2718 1.02698H42.5738H43.7288H44.1488H45.0098L44.1488 1.88798V15.118ZM49.0208 7.09598C49.6928 7.12398 50.3158 7.25698 50.8898 7.49498C51.4778 7.73298 51.9818 8.04798 52.4018 8.43998C52.8358 8.83198 53.1788 9.28698 53.4308 9.80498C53.6828 10.309 53.8088 10.855 53.8088 11.443C53.8088 12.045 53.6758 12.612 53.4098 13.144C53.1438 13.676 52.7798 14.138 52.3178 14.53C51.8558 14.922 51.3168 15.237 50.7008 15.475C50.0848 15.699 49.4268 15.811 48.7268 15.811C47.8728 15.811 47.0888 15.65 46.3748 15.328C45.6608 14.992 45.0728 14.551 44.6108 14.005C45.0168 14.327 45.4788 14.586 45.9968 14.782C46.5148 14.978 47.0748 15.076 47.6768 15.076C48.2788 15.076 48.8458 14.978 49.3778 14.782C49.9238 14.586 50.3928 14.32 50.7848 13.984C51.1768 13.634 51.4848 13.235 51.7088 12.787C51.9468 12.325 52.0658 11.835 52.0658 11.317C52.0658 10.799 51.9468 10.309 51.7088 9.84698C51.4848 9.38498 51.1768 8.98598 50.7848 8.64998C50.3928 8.29998 49.9238 8.02698 49.3778 7.83098C48.8458 7.63498 48.2788 7.53698 47.6768 7.53698C47.2708 7.53698 46.8578 7.59298 46.4378 7.70498V7.53698V7.45298V7.26398C46.8578 7.24998 47.2498 7.16598 47.6138 7.01198C47.9918 6.85798 48.3138 6.66198 48.5798 6.42398C48.8598 6.17198 49.0768 5.88498 49.2308 5.56298C49.3848 5.22698 49.4618 4.87698 49.4618 4.51298C49.4618 4.13498 49.3778 3.77798 49.2098 3.44198C49.0418 3.10598 48.8108 2.81898 48.5168 2.58098C48.2228 2.32898 47.8798 2.13298 47.4878 1.99298C47.0958 1.83898 46.6758 1.76198 46.2278 1.76198C45.8638 1.76198 45.5208 1.81098 45.1988 1.90898C44.8768 2.00698 44.5758 2.13998 44.2958 2.30798C44.6318 1.91598 45.0518 1.60798 45.5558 1.38398C46.0598 1.14598 46.6058 1.02698 47.1938 1.02698C47.6978 1.02698 48.1668 1.11098 48.6008 1.27898C49.0488 1.44698 49.4408 1.67798 49.7768 1.97198C50.1128 2.26598 50.3718 2.61598 50.5538 3.02198C50.7498 3.41398 50.8478 3.83398 50.8478 4.28198C50.8478 4.88398 50.6798 5.43698 50.3438 5.94098C50.0078 6.43098 49.5668 6.81598 49.0208 7.09598Z" fill="#F9F8DF"/>
<path d="M64.0621 7.83098C64.7621 8.27898 65.2871 8.79698 65.6371 9.38498C65.9871 9.95898 66.1621 10.652 66.1621 11.464C66.1621 12.08 66.0291 12.661 65.7631 13.207C65.4971 13.753 65.1331 14.229 64.6711 14.635C64.2231 15.041 63.6911 15.363 63.0751 15.601C62.4731 15.839 61.8221 15.958 61.1221 15.958C60.2821 15.958 59.5051 15.79 58.7911 15.454C58.0771 15.118 57.4891 14.656 57.0271 14.068L55.2841 15.265L57.1321 11.191C57.1321 11.681 57.2301 12.136 57.4261 12.556C57.6221 12.976 57.8881 13.34 58.2241 13.648C58.5601 13.942 58.9521 14.173 59.4001 14.341C59.8481 14.509 60.3241 14.593 60.8281 14.593C61.3461 14.593 61.8291 14.516 62.2771 14.362C62.7391 14.194 63.1381 13.97 63.4741 13.69C63.8101 13.41 64.0761 13.081 64.2721 12.703C64.4681 12.325 64.5661 11.919 64.5661 11.485C64.5661 11.051 64.4681 10.659 64.2721 10.309C64.0901 9.94498 63.8311 9.62998 63.4951 9.36398C63.1591 9.08398 62.7601 8.85998 62.2981 8.69198C61.8361 8.50998 61.3321 8.39798 60.7861 8.35598C60.3101 8.31398 59.8481 8.19498 59.4001 7.99898C58.9661 7.78898 58.5741 7.52298 58.2241 7.20098C57.8881 6.87898 57.6151 6.50798 57.4051 6.08798C57.2091 5.65398 57.1111 5.19198 57.1111 4.70198C57.1111 4.19798 57.2161 3.72198 57.4261 3.27398C57.6501 2.82598 57.9511 2.43398 58.3291 2.09798C58.7071 1.76198 59.1481 1.50298 59.6521 1.32098C60.1701 1.12498 60.7161 1.02698 61.2901 1.02698C61.7381 1.02698 62.1651 1.08998 62.5711 1.21598C62.9911 1.32798 63.3761 1.49598 63.7261 1.71998L64.1881 1.44698L64.0411 1.92998L63.4741 3.75698C63.2641 3.29498 62.9281 2.93798 62.4661 2.68598C62.0041 2.43398 61.5141 2.30798 60.9961 2.30798C60.6181 2.30798 60.2611 2.37098 59.9251 2.49698C59.6031 2.60898 59.3161 2.76998 59.0641 2.97998C58.8261 3.18998 58.6371 3.43498 58.4971 3.71498C58.3571 3.99498 58.2871 4.29598 58.2871 4.61798C58.2871 4.93998 58.3571 5.24098 58.4971 5.52098C58.6371 5.78698 58.8261 6.01798 59.0641 6.21398C59.3161 6.40998 59.6031 6.57098 59.9251 6.69698C60.2611 6.82298 60.6181 6.90698 60.9961 6.94898C61.5281 7.00498 62.0741 7.10298 62.6341 7.24298C63.1941 7.38298 63.6701 7.57898 64.0621 7.83098Z" fill="#F9F8DF"/>
<path d="M71.8705 2.30798V14.698L73.1515 15.979H71.8705H70.2745H68.9935L70.2745 14.698V2.30798L68.9935 1.02698H70.2745H71.8705H73.1515L71.8705 2.30798Z" fill="#F9F8DF"/>
<path d="M82.3639 1.02698H82.7419H87.6559L87.8659 3.60998L86.6689 2.41298H82.7419V14.698L84.0229 15.979H82.7419H81.1459H79.8649L81.1459 14.698V2.41298H77.2189L76.0219 3.60998L76.2319 1.02698H81.1459H81.5239H82.3639Z" fill="#F9F8DF"/>
<path d="M93.8835 14.593H100.982L102.263 13.312L102.053 15.979H95.1646H93.8835H92.2875H91.0065L92.2875 14.698V2.30798L91.0065 1.02698H92.2875H93.8835H95.1646H100.016L100.226 3.60998L99.0285 2.41298H93.8835V7.57898H96.0465L96.6555 6.96998V7.57898V7.83098V8.25098V8.50298V9.11198L96.0465 8.50298H93.8835V14.593Z" fill="#F9F8DF"/>
<path d="M128.749 14.698H127.594C126.894 15.16 126.131 15.517 125.305 15.769C124.493 16.021 123.632 16.147 122.722 16.147C121.574 16.147 120.496 15.951 119.488 15.559C118.48 15.153 117.598 14.607 116.842 13.921C116.1 13.235 115.512 12.43 115.078 11.506C114.644 10.568 114.427 9.57398 114.427 8.52398C114.427 7.47398 114.644 6.48698 115.078 5.56298C115.512 4.63898 116.1 3.83398 116.842 3.14798C117.598 2.44798 118.48 1.90198 119.488 1.50998C120.496 1.10398 121.574 0.900982 122.722 0.900982C123.59 0.900982 124.416 1.01998 125.2 1.25798C125.998 1.49598 126.733 1.82498 127.405 2.24498H128.749L128.959 6.12998C128.707 5.58398 128.371 5.06598 127.951 4.57598C127.531 4.07198 127.048 3.63098 126.502 3.25298C125.97 2.87498 125.382 2.57398 124.738 2.34998C124.094 2.12598 123.422 2.01398 122.722 2.01398C121.784 2.01398 120.902 2.19598 120.076 2.55998C119.264 2.90998 118.55 3.38598 117.934 3.98798C117.318 4.57598 116.828 5.25498 116.464 6.02498C116.114 6.79498 115.939 7.59298 115.939 8.41898C115.939 9.24498 116.114 10.043 116.464 10.813C116.828 11.583 117.318 12.269 117.934 12.871C118.55 13.459 119.264 13.935 120.076 14.299C120.902 14.649 121.784 14.824 122.722 14.824C123.352 14.824 123.961 14.733 124.549 14.551C125.151 14.355 125.711 14.103 126.229 13.795C126.761 13.473 127.244 13.109 127.678 12.703C128.112 12.283 128.476 11.849 128.77 11.401L128.749 14.698Z" fill="#F9F8DF"/>
<path d="M139.888 0.900982C141.036 0.900982 142.107 1.10398 143.101 1.50998C144.109 1.90198 144.984 2.44798 145.726 3.14798C146.482 3.83398 147.077 4.63898 147.511 5.56298C147.945 6.48698 148.162 7.47398 148.162 8.52398C148.162 9.57398 147.945 10.568 147.511 11.506C147.077 12.43 146.482 13.235 145.726 13.921C144.984 14.607 144.109 15.153 143.101 15.559C142.107 15.951 141.036 16.147 139.888 16.147C138.74 16.147 137.662 15.951 136.654 15.559C135.66 15.153 134.785 14.607 134.029 13.921C133.287 13.235 132.699 12.43 132.265 11.506C131.831 10.568 131.614 9.57398 131.614 8.52398C131.614 7.47398 131.831 6.48698 132.265 5.56298C132.699 4.63898 133.287 3.83398 134.029 3.14798C134.785 2.44798 135.66 1.90198 136.654 1.50998C137.662 1.10398 138.74 0.900982 139.888 0.900982ZM139.888 14.824C140.826 14.824 141.701 14.649 142.513 14.299C143.339 13.935 144.053 13.459 144.655 12.871C145.271 12.269 145.754 11.583 146.104 10.813C146.468 10.043 146.65 9.24498 146.65 8.41898C146.65 7.59298 146.468 6.79498 146.104 6.02498C145.754 5.25498 145.271 4.57598 144.655 3.98798C144.053 3.38598 143.339 2.90998 142.513 2.55998C141.701 2.19598 140.826 2.01398 139.888 2.01398C138.95 2.01398 138.068 2.19598 137.242 2.55998C136.43 2.90998 135.716 3.38598 135.1 3.98798C134.498 4.57598 134.015 5.25498 133.651 6.02498C133.301 6.79498 133.126 7.59298 133.126 8.41898C133.126 9.24498 133.301 10.043 133.651 10.813C134.015 11.583 134.498 12.269 135.1 12.871C135.716 13.459 136.43 13.935 137.242 14.299C138.068 14.649 138.95 14.824 139.888 14.824Z" fill="#F9F8DF"/>
<path d="M166.882 2.03498L168.373 14.824L169.549 15.979H168.52H168.247H166.672H165.391L166.588 14.782L165.832 3.90398L160.33 15.643L154.828 3.90398L154.072 14.782L155.269 15.979H153.988H152.392H152.14H151.111L152.266 14.824L153.778 2.03498L152.581 1.02698H154.828L160.33 11.926L165.832 1.02698H168.079L166.882 2.03498Z" fill="#F9F8DF"/>
<path d="M175.73 2.30798V14.698L177.011 15.979H175.73H174.134H172.853L174.134 14.698V2.30798L172.853 1.02698H174.134H175.73H177.011L175.73 2.30798Z" fill="#F9F8DF"/>
<path d="M192.734 2.32898V14.74L194.036 16.042H191.621L182.759 4.91198V14.74L184.061 16.042H182.759H181.163H179.882L181.163 14.74V3.08498L179.168 1.02698H181.52L191.159 13.417V2.32898L189.857 1.02698H191.159H192.734H194.036L192.734 2.32898Z" fill="#F9F8DF"/>
<path d="M210.668 10.057H212.243L212.075 11.233V14.362H210.689C209.961 14.922 209.142 15.363 208.232 15.685C207.336 15.993 206.377 16.147 205.355 16.147C204.207 16.147 203.129 15.951 202.121 15.559C201.127 15.153 200.252 14.607 199.496 13.921C198.754 13.235 198.166 12.43 197.732 11.506C197.298 10.568 197.081 9.57398 197.081 8.52398C197.081 7.47398 197.298 6.48698 197.732 5.56298C198.166 4.63898 198.754 3.83398 199.496 3.14798C200.252 2.44798 201.127 1.90198 202.121 1.50998C203.129 1.10398 204.207 0.900982 205.355 0.900982C206.237 0.900982 207.07 1.01998 207.854 1.25798C208.638 1.49598 209.366 1.82498 210.038 2.24498H211.382L211.613 6.12998C211.361 5.58398 211.025 5.06598 210.605 4.57598C210.185 4.07198 209.702 3.63098 209.156 3.25298C208.61 2.87498 208.015 2.57398 207.371 2.34998C206.727 2.12598 206.055 2.01398 205.355 2.01398C204.417 2.01398 203.535 2.19598 202.709 2.55998C201.897 2.90998 201.183 3.38598 200.567 3.98798C199.965 4.57598 199.482 5.25498 199.118 6.02498C198.768 6.79498 198.593 7.59298 198.593 8.41898C198.593 9.24498 198.768 10.043 199.118 10.813C199.482 11.583 199.965 12.269 200.567 12.871C201.183 13.459 201.897 13.935 202.709 14.299C203.535 14.649 204.417 14.824 205.355 14.824C205.901 14.824 206.426 14.747 206.93 14.593C207.434 14.439 207.91 14.236 208.358 13.984C208.806 13.732 209.226 13.445 209.618 13.123C210.01 12.801 210.36 12.465 210.668 12.115V11.338L209.366 10.057H210.668Z" fill="#F9F8DF"/>
<path d="M232.727 7.83098C233.427 8.27898 233.952 8.79698 234.302 9.38498C234.652 9.95898 234.827 10.652 234.827 11.464C234.827 12.08 234.694 12.661 234.428 13.207C234.162 13.753 233.798 14.229 233.336 14.635C232.888 15.041 232.356 15.363 231.74 15.601C231.138 15.839 230.487 15.958 229.787 15.958C228.947 15.958 228.17 15.79 227.456 15.454C226.742 15.118 226.154 14.656 225.692 14.068L223.949 15.265L225.797 11.191C225.797 11.681 225.895 12.136 226.091 12.556C226.287 12.976 226.553 13.34 226.889 13.648C227.225 13.942 227.617 14.173 228.065 14.341C228.513 14.509 228.989 14.593 229.493 14.593C230.011 14.593 230.494 14.516 230.942 14.362C231.404 14.194 231.803 13.97 232.139 13.69C232.475 13.41 232.741 13.081 232.937 12.703C233.133 12.325 233.231 11.919 233.231 11.485C233.231 11.051 233.133 10.659 232.937 10.309C232.755 9.94498 232.496 9.62998 232.16 9.36398C231.824 9.08398 231.425 8.85998 230.963 8.69198C230.501 8.50998 229.997 8.39798 229.451 8.35598C228.975 8.31398 228.513 8.19498 228.065 7.99898C227.631 7.78898 227.239 7.52298 226.889 7.20098C226.553 6.87898 226.28 6.50798 226.07 6.08798C225.874 5.65398 225.776 5.19198 225.776 4.70198C225.776 4.19798 225.881 3.72198 226.091 3.27398C226.315 2.82598 226.616 2.43398 226.994 2.09798C227.372 1.76198 227.813 1.50298 228.317 1.32098C228.835 1.12498 229.381 1.02698 229.955 1.02698C230.403 1.02698 230.83 1.08998 231.236 1.21598C231.656 1.32798 232.041 1.49598 232.391 1.71998L232.853 1.44698L232.706 1.92998L232.139 3.75698C231.929 3.29498 231.593 2.93798 231.131 2.68598C230.669 2.43398 230.179 2.30798 229.661 2.30798C229.283 2.30798 228.926 2.37098 228.59 2.49698C228.268 2.60898 227.981 2.76998 227.729 2.97998C227.491 3.18998 227.302 3.43498 227.162 3.71498C227.022 3.99498 226.952 4.29598 226.952 4.61798C226.952 4.93998 227.022 5.24098 227.162 5.52098C227.302 5.78698 227.491 6.01798 227.729 6.21398C227.981 6.40998 228.268 6.57098 228.59 6.69698C228.926 6.82298 229.283 6.90698 229.661 6.94898C230.193 7.00498 230.739 7.10298 231.299 7.24298C231.859 7.38298 232.335 7.57898 232.727 7.83098Z" fill="#F9F8DF"/>
<path d="M245.512 0.900982C246.66 0.900982 247.731 1.10398 248.725 1.50998C249.733 1.90198 250.608 2.44798 251.35 3.14798C252.106 3.83398 252.701 4.63898 253.135 5.56298C253.569 6.48698 253.786 7.47398 253.786 8.52398C253.786 9.57398 253.569 10.568 253.135 11.506C252.701 12.43 252.106 13.235 251.35 13.921C250.608 14.607 249.733 15.153 248.725 15.559C247.731 15.951 246.66 16.147 245.512 16.147C244.364 16.147 243.286 15.951 242.278 15.559C241.284 15.153 240.409 14.607 239.653 13.921C238.911 13.235 238.323 12.43 237.889 11.506C237.455 10.568 237.238 9.57398 237.238 8.52398C237.238 7.47398 237.455 6.48698 237.889 5.56298C238.323 4.63898 238.911 3.83398 239.653 3.14798C240.409 2.44798 241.284 1.90198 242.278 1.50998C243.286 1.10398 244.364 0.900982 245.512 0.900982ZM245.512 14.824C246.45 14.824 247.325 14.649 248.137 14.299C248.963 13.935 249.677 13.459 250.279 12.871C250.895 12.269 251.378 11.583 251.728 10.813C252.092 10.043 252.274 9.24498 252.274 8.41898C252.274 7.59298 252.092 6.79498 251.728 6.02498C251.378 5.25498 250.895 4.57598 250.279 3.98798C249.677 3.38598 248.963 2.90998 248.137 2.55998C247.325 2.19598 246.45 2.01398 245.512 2.01398C244.574 2.01398 243.692 2.19598 242.866 2.55998C242.054 2.90998 241.34 3.38598 240.724 3.98798C240.122 4.57598 239.639 5.25498 239.275 6.02498C238.925 6.79498 238.75 7.59298 238.75 8.41898C238.75 9.24498 238.925 10.043 239.275 10.813C239.639 11.583 240.122 12.269 240.724 12.871C241.34 13.459 242.054 13.935 242.866 14.299C243.692 14.649 244.574 14.824 245.512 14.824Z" fill="#F9F8DF"/>
<path d="M264.588 0.900982C265.736 0.900982 266.807 1.10398 267.801 1.50998C268.809 1.90198 269.684 2.44798 270.426 3.14798C271.182 3.83398 271.777 4.63898 272.211 5.56298C272.645 6.48698 272.862 7.47398 272.862 8.52398C272.862 9.57398 272.645 10.568 272.211 11.506C271.777 12.43 271.182 13.235 270.426 13.921C269.684 14.607 268.809 15.153 267.801 15.559C266.807 15.951 265.736 16.147 264.588 16.147C263.44 16.147 262.362 15.951 261.354 15.559C260.36 15.153 259.485 14.607 258.729 13.921C257.987 13.235 257.399 12.43 256.965 11.506C256.531 10.568 256.314 9.57398 256.314 8.52398C256.314 7.47398 256.531 6.48698 256.965 5.56298C257.399 4.63898 257.987 3.83398 258.729 3.14798C259.485 2.44798 260.36 1.90198 261.354 1.50998C262.362 1.10398 263.44 0.900982 264.588 0.900982ZM264.588 14.824C265.526 14.824 266.401 14.649 267.213 14.299C268.039 13.935 268.753 13.459 269.355 12.871C269.971 12.269 270.454 11.583 270.804 10.813C271.168 10.043 271.35 9.24498 271.35 8.41898C271.35 7.59298 271.168 6.79498 270.804 6.02498C270.454 5.25498 269.971 4.57598 269.355 3.98798C268.753 3.38598 268.039 2.90998 267.213 2.55998C266.401 2.19598 265.526 2.01398 264.588 2.01398C263.65 2.01398 262.768 2.19598 261.942 2.55998C261.13 2.90998 260.416 3.38598 259.8 3.98798C259.198 4.57598 258.715 5.25498 258.351 6.02498C258.001 6.79498 257.826 7.59298 257.826 8.41898C257.826 9.24498 258.001 10.043 258.351 10.813C258.715 11.583 259.198 12.269 259.8 12.871C260.416 13.459 261.13 13.935 261.942 14.299C262.768 14.649 263.65 14.824 264.588 14.824Z" fill="#F9F8DF"/>
<path d="M288.243 2.32898V14.74L289.545 16.042H287.13L278.268 4.91198V14.74L279.57 16.042H278.268H276.672H275.391L276.672 14.74V3.08498L274.677 1.02698H277.029L286.668 13.417V2.32898L285.366 1.02698H286.668H288.243H289.545L288.243 2.32898Z" fill="#F9F8DF"/>
</svg>
